<svg width="50" height="50" viewBox="0 0 50 50" fill="none" xmlns="http://www.w3.org/2000/svg">
<path d="M18.75 39.0625C18.75 38.6481 18.9146 38.2506 19.2077 37.9576C19.5007 37.6646 19.8981 37.5 20.3125 37.5H29.6875C30.1019 37.5 30.4993 37.6646 30.7924 37.9576C31.0854 38.2506 31.25 38.6481 31.25 39.0625C31.25 39.4769 31.0854 39.8743 30.7924 40.1673C30.4993 40.4603 30.1019 40.625 29.6875 40.625H20.3125C19.8981 40.625 19.5007 40.4603 19.2077 40.1673C18.9146 39.8743 18.75 39.4769 18.75 39.0625ZM9.37501 25.1937C9.37501 21.125 13.2344 18.0156 17.2813 18.3937C22.4159 18.8729 27.5841 18.8729 32.7188 18.3937C36.7656 18.0156 40.625 21.125 40.625 25.1937V28.8093C40.6378 29.5008 40.4044 30.1742 39.9664 30.7094C39.5285 31.2447 38.9146 31.6068 38.2344 31.7312C35.5938 32.1906 30.9219 32.8125 25 32.8125C19.0781 32.8125 14.4063 32.1875 11.7656 31.7312C11.0854 31.6068 10.4715 31.2447 10.0336 30.7094C9.59566 30.1742 9.36224 29.5008 9.37501 28.8093V25.1937ZM23.5688 22.6093C23.447 22.5886 23.322 22.5971 23.2041 22.634C23.0863 22.671 22.9788 22.7353 22.8906 22.8218L20.0156 25.6343C18.0601 25.5178 16.1098 25.327 14.1688 25.0625C13.9676 25.0425 13.7666 25.1012 13.6078 25.2264C13.4491 25.3515 13.345 25.5333 13.3175 25.7336C13.29 25.9338 13.3412 26.1369 13.4603 26.3002C13.5794 26.4636 13.7572 26.5743 13.9563 26.6093C15.675 26.8468 17.8063 27.075 20.2688 27.2125C20.3772 27.2186 20.4858 27.202 20.5875 27.1638C20.6892 27.1256 20.7818 27.0666 20.8594 26.9906L23.2156 24.6906L25.8625 30.0343C25.9183 30.1464 26.0001 30.2435 26.1013 30.3173C26.2024 30.3912 26.3198 30.4396 26.4435 30.4586C26.5673 30.4776 26.6938 30.4666 26.8124 30.4265C26.931 30.3864 27.0382 30.3183 27.125 30.2281L30.0375 27.1968C32.0463 27.0776 34.0499 26.8816 36.0438 26.6093C36.2428 26.5743 36.4206 26.4636 36.5397 26.3002C36.6588 26.1369 36.71 25.9338 36.6825 25.7336C36.655 25.5333 36.5509 25.3515 36.3922 25.2264C36.2335 25.1012 36.0324 25.0425 35.8313 25.0625C34.15 25.2937 32.0594 25.5156 29.6438 25.6531C29.4471 25.664 29.2618 25.7489 29.125 25.8906L26.7688 28.3437L24.1375 23.0312C24.0826 22.9211 24.0025 22.8254 23.9037 22.7521C23.8048 22.6788 23.6901 22.6299 23.5688 22.6093V22.6093Z" fill="#C2E4FF"/>
<path d="M26.5625 5.83133C27.1583 5.48737 27.6239 4.95644 27.8871 4.32089C28.1504 3.68533 28.1966 2.98067 28.0185 2.31619C27.8405 1.65171 27.4481 1.06455 26.9024 0.645771C26.3566 0.226992 25.6879 0 25 0C24.3121 0 23.6434 0.226992 23.0976 0.645771C22.5519 1.06455 22.1595 1.65171 21.9815 2.31619C21.8034 2.98067 21.8496 3.68533 22.1129 4.32089C22.3761 4.95644 22.8417 5.48737 23.4375 5.83133V9.37508H17.1875C13.4579 9.37508 9.88104 10.8567 7.24381 13.4939C4.60658 16.1311 3.125 19.708 3.125 23.4376V25.0001C2.2962 25.0001 1.50134 25.3293 0.915291 25.9154C0.32924 26.5014 0 27.2963 0 28.1251L0 34.3751C0 35.2039 0.32924 35.9987 0.915291 36.5848C1.50134 37.1708 2.2962 37.5001 3.125 37.5001V40.6251C3.125 42.2827 3.78348 43.8724 4.95558 45.0445C6.12769 46.2166 7.7174 46.8751 9.375 46.8751H40.625C42.2826 46.8751 43.8723 46.2166 45.0444 45.0445C46.2165 43.8724 46.875 42.2827 46.875 40.6251V37.5001C47.7038 37.5001 48.4987 37.1708 49.0847 36.5848C49.6708 35.9987 50 35.2039 50 34.3751V28.1251C50 27.2963 49.6708 26.5014 49.0847 25.9154C48.4987 25.3293 47.7038 25.0001 46.875 25.0001V23.4376C46.875 19.708 45.3934 16.1311 42.7562 13.4939C40.119 10.8567 36.5421 9.37508 32.8125 9.37508H26.5625V5.83133ZM43.75 23.4376V40.6251C43.75 41.4539 43.4208 42.2487 42.8347 42.8348C42.2487 43.4208 41.4538 43.7501 40.625 43.7501H9.375C8.5462 43.7501 7.75134 43.4208 7.16529 42.8348C6.57924 42.2487 6.25 41.4539 6.25 40.6251V23.4376C6.25 20.5368 7.40234 17.7548 9.45352 15.7036C11.5047 13.6524 14.2867 12.5001 17.1875 12.5001H32.8125C35.7133 12.5001 38.4953 13.6524 40.5465 15.7036C42.5977 17.7548 43.75 20.5368 43.75 23.4376V23.4376Z" fill="white"/>
</svg>
