<svg width="41" height="41" viewBox="0 0 41 41" fill="none" xmlns="http://www.w3.org/2000/svg">
<path d="M39.6676 1.58804C38.6672 0.561268 37.1866 0.178747 35.806 0.581401L3.61287 9.94312C2.15627 10.3478 1.12385 11.5094 0.845735 12.9852C0.561619 14.4871 1.55403 16.3936 2.85056 17.1909L12.9167 23.3777C13.9491 24.0119 15.2816 23.8528 16.136 22.9911L27.6627 11.3927C28.243 10.7887 29.2033 10.7887 29.7836 11.3927C30.3638 11.9765 30.3638 12.9228 29.7836 13.5267L18.2369 25.1272C17.3805 25.9869 17.2204 27.3257 17.8507 28.3646L24.0012 38.5316C24.7215 39.7396 25.962 40.4241 27.3226 40.4241C27.4826 40.4241 27.6627 40.4241 27.8228 40.4039C29.3834 40.2026 30.6239 39.1356 31.0841 37.6256L40.628 5.47365C41.0482 4.10463 40.668 2.61481 39.6676 1.58804Z" fill="url(#paint0_linear_501_5)"/>
<defs>
<linearGradient id="paint0_linear_501_5" x1="11" y1="36" x2="44" y2="-1.1755e-06" gradientUnits="userSpaceOnUse">
<stop stop-color="#8D9CF9"/>
<stop offset="1" stop-color="#C2E4FF"/>
</linearGradient>
</defs>
</svg>
